<?xml version="1.0" encoding="UTF-8"?>
<svg version="1.1" xmlns="http://www.w3.org/2000/svg" width="2000" height="2000">
<path d="M0 0 C660 0 1320 0 2000 0 C2000 660 2000 1320 2000 2000 C1340 2000 680 2000 0 2000 C0 1340 0 680 0 0 Z " fill="#000000" transform="translate(0,0)"/>
<path d="M0 0 C147.18 0 294.36 0 446 0 C456.61167856 47.7525535 456.61167856 47.7525535 460.31787109 67.18151855 C462.09355699 76.48113347 463.98333377 85.74915287 466 95 C468.30505929 105.57376313 470.41594926 116.17551597 472.44238281 126.80517578 C474.01869656 135.063512 475.67322782 143.29346443 477.5 151.5 C479.47369994 160.36658939 481.23649295 169.26486533 482.9375 178.1875 C484.83735919 188.15261507 486.83914682 198.08744757 489 208 C491.28001141 218.46162189 493.37115185 228.95066812 495.375 239.46826172 C497.35091121 249.82378597 499.50248044 260.13037959 501.74780273 270.43041992 C503.78984022 279.86243449 505.63532263 289.32623929 507.44238281 298.80517578 C509.01869656 307.063512 510.67322782 315.29346443 512.5 323.5 C514.47369994 332.36658939 516.23649295 341.26486533 517.9375 350.1875 C519.83735895 360.1526138 521.83908631 370.08746123 524 380 C526.30469321 390.57208388 528.41550639 401.17211816 530.44137573 411.80014038 C532.21176554 421.07658142 534.11417923 430.30996658 536.16723633 439.52758789 C538.08444805 448.20594352 539.75379295 456.92788661 541.38891602 465.66333008 C541.58541748 466.7077124 541.78191895 467.75209473 541.984375 468.828125 C542.15678711 469.7552832 542.32919922 470.68244141 542.50683594 471.63769531 C542.98051769 474.13435792 542.98051769 474.13435792 544 477 C552.10000613 465.76513573 560.0065507 454.39829796 567.90332031 443.02001953 C571.26528259 438.17750982 574.63287591 433.33892123 578 428.5 C579.32683709 426.59245777 580.65365997 424.68490566 581.98046875 422.77734375 C584.71103731 418.85202629 587.44297125 414.92766351 590.17578125 411.00390625 C596.01304247 402.62098483 601.84963106 394.23822419 607.625 385.8125 C612.19098193 379.15228169 616.81551058 372.53415056 621.45092773 365.92211914 C630.56252891 352.92303336 639.64933556 339.90591796 648.625 326.8125 C653.19457686 320.1471086 657.82252323 313.52367903 662.46191406 306.90673828 C668.98142682 297.60648251 675.46348433 288.28030306 681.94580078 278.95410156 C684.02373427 275.96586823 686.10340516 272.97885136 688.18359375 269.9921875 C694.01846154 261.61331736 699.85228414 253.2343536 705.625 244.8125 C710.19098193 238.15228169 714.81551058 231.53415056 719.45092773 224.92211914 C728.56252891 211.92303336 737.64933556 198.90591796 746.625 185.8125 C751.19457686 179.1471086 755.82252323 172.52367903 760.46191406 165.90673828 C766.98142682 156.60648251 773.46348433 147.28030306 779.94580078 137.95410156 C782.02373427 134.96586823 784.10340516 131.97885136 786.18359375 128.9921875 C792.01846154 120.61331736 797.85228414 112.2343536 803.625 103.8125 C808.19098193 97.15228169 812.81551058 90.53415056 817.45092773 83.92211914 C827.00048324 70.29822485 836.51327869 56.64866328 845.91870117 42.92480469 C850.163495 36.74105053 854.47194152 30.60230135 858.78051758 24.46289062 C863.13223741 18.25630975 867.44103367 12.02158105 871.71289062 5.75976562 C874.89714404 1.10285596 874.89714404 1.10285596 876 0 C877.58991123 -0.09703499 879.18415482 -0.12371626 880.77702427 -0.12304783 C882.33708866 -0.1260344 882.33708866 -0.1260344 883.92866951 -0.12908131 C885.66355414 -0.12471205 885.66355414 -0.12471205 887.43348694 -0.12025452 C888.65123997 -0.12110894 889.868993 -0.12196337 891.12364763 -0.12284368 C894.51907853 -0.12421191 897.91445251 -0.12106428 901.30987656 -0.11606562 C904.96565321 -0.11176455 908.62142796 -0.1132073 912.27720642 -0.1139679 C918.61618025 -0.11449335 924.95514382 -0.11134432 931.29411507 -0.10573006 C940.45930844 -0.09761795 949.62449683 -0.09500013 958.78969341 -0.09374207 C973.65805688 -0.09155109 988.52641489 -0.08488977 1003.39477539 -0.07543945 C1017.84171522 -0.06626651 1032.28865356 -0.0591851 1046.7355957 -0.05493164 C1048.07038864 -0.05453756 1048.07038864 -0.05453756 1049.43214709 -0.05413551 C1053.89612968 -0.05283051 1058.36011228 -0.05156679 1062.82409489 -0.05032361 C1099.88273379 -0.03994957 1136.94136647 -0.02233002 1174 0 C1173.37529053 3.15472846 1172.74814648 6.30896844 1172.12060547 9.46313477 C1171.94599289 10.34506752 1171.77138031 11.22700027 1171.59147644 12.13565826 C1170.07911241 19.72708764 1168.38601979 27.26877784 1166.62304688 34.80566406 C1163.92819577 46.34068358 1161.35185843 57.88942592 1159 69.5 C1156.83001301 80.20750625 1154.4629622 90.85713529 1152 101.5 C1149.22421281 113.49715155 1146.60477146 125.50992241 1144.14624023 137.5769043 C1142.0695326 147.74791598 1139.83231095 157.87842337 1137.5625 168.0078125 C1135.86993756 175.56205373 1134.21396485 183.12419518 1132.5625 190.6875 C1132.26701326 192.04012149 1131.97152171 193.39274193 1131.67602539 194.74536133 C1131.08088071 197.47001412 1130.48594737 200.19471298 1129.89111328 202.91943359 C1129.01042645 206.95301538 1128.128467 210.98631808 1127.24609375 215.01953125 C1127.1020108 215.67816162 1126.95792786 216.33679199 1126.80947876 217.01538086 C1126.0809398 220.34543712 1125.35214507 223.67543723 1124.62304688 227.00537109 C1123.31578861 232.97704258 1122.01001463 238.94901318 1120.71318054 244.92295837 C1119.99745895 248.21972751 1119.28034147 251.51619184 1118.5625 254.8125 C1118.42006866 255.46666901 1118.27763733 256.12083801 1118.13088989 256.79483032 C1115.64639519 268.18963521 1113.04390287 279.55559245 1110.42263794 290.91958618 C1107.88928883 301.91976987 1105.53142216 312.94487884 1103.28881836 324.00854492 C1101.3405363 333.54170186 1099.19359335 343.02112237 1097 352.5 C1094.22421281 364.49715155 1091.60477146 376.50992241 1089.14624023 388.5769043 C1087.0695326 398.74791598 1084.83231095 408.87842337 1082.5625 419.0078125 C1080.86993756 426.56205373 1079.21396485 434.12419518 1077.5625 441.6875 C1077.26701326 443.04012149 1076.97152171 444.39274193 1076.67602539 445.74536133 C1076.08088071 448.47001412 1075.48594737 451.19471298 1074.89111328 453.91943359 C1074.01042645 457.95301538 1073.128467 461.98631808 1072.24609375 466.01953125 C1072.1020108 466.67816162 1071.95792786 467.33679199 1071.80947876 468.01538086 C1071.0809398 471.34543712 1070.35214507 474.67543723 1069.62304688 478.00537109 C1068.31578861 483.97704258 1067.01001463 489.94901318 1065.71318054 495.92295837 C1064.99745895 499.21972751 1064.28034147 502.51619184 1063.5625 505.8125 C1063.42006866 506.46666901 1063.27763733 507.12083801 1063.13088989 507.79483032 C1060.64639519 519.18963521 1058.04390287 530.55559245 1055.42263794 541.91958618 C1052.88928883 552.91976987 1050.53142216 563.94487884 1048.28881836 575.00854492 C1046.3405363 584.54170186 1044.19359335 594.02112237 1042 603.5 C1039.22421281 615.49715155 1036.60477146 627.50992241 1034.14624023 639.5769043 C1032.0695326 649.74791598 1029.83231095 659.87842337 1027.5625 670.0078125 C1025.86993756 677.56205373 1024.21396485 685.12419518 1022.5625 692.6875 C1022.26701326 694.04012149 1021.97152171 695.39274193 1021.67602539 696.74536133 C1021.08088071 699.47001412 1020.48594737 702.19471298 1019.89111328 704.91943359 C1019.01042645 708.95301538 1018.128467 712.98631808 1017.24609375 717.01953125 C1017.1020108 717.67816162 1016.95792786 718.33679199 1016.80947876 719.01538086 C1016.0809398 722.34543712 1015.35214507 725.67543723 1014.62304688 729.00537109 C1013.31578861 734.97704258 1012.01001463 740.94901318 1010.71318054 746.92295837 C1009.99745895 750.21972751 1009.28034147 753.51619184 1008.5625 756.8125 C1008.42006866 757.46666901 1008.27763733 758.12083801 1008.13088989 758.79483032 C1005.64639519 770.18963521 1003.04390287 781.55559245 1000.42263794 792.91958618 C997.88928883 803.91976987 995.53142216 814.94487884 993.28881836 826.00854492 C991.3405363 835.54170186 989.19359335 845.02112237 987 854.5 C984.22268679 866.50374714 981.60290374 878.52331738 979.1418457 890.59667969 C977.10521763 900.56757112 974.91584034 910.49927964 972.69140625 920.4296875 C970.64385452 929.57253178 968.63367948 938.72354865 966.625 947.875 C966.43371521 948.74614441 966.24243042 949.61728882 966.04534912 950.51483154 C963.10580028 963.90631549 960.19945926 977.30476477 957.30966187 990.70706177 C954.98288992 1001.49518527 952.62007788 1012.27448281 950.21582031 1023.0456543 C948.30988962 1031.58826199 946.4310689 1040.13665725 944.5625 1048.6875 C944.26611339 1050.04296877 943.96972667 1051.39843752 943.67333984 1052.75390625 C942.34808966 1058.81693719 941.02524467 1064.8804776 939.70869446 1070.94540405 C938.99450696 1074.23469982 938.27888185 1077.52368149 937.5625 1080.8125 C937.42115631 1081.46156311 937.27981262 1082.11062622 937.13418579 1082.77935791 C934.43380634 1095.16256763 931.61688295 1107.51832264 928.75219727 1119.86450195 C926.89052586 1127.91836816 925.17202085 1135.98122826 923.62207031 1144.10131836 C923 1147 923 1147 922 1149 C827.29 1149 732.58 1149 635 1149 C636.83529498 1139.21176008 638.6728772 1129.43824614 640.6875 1119.6875 C640.93951172 1118.46748291 641.19152344 1117.24746582 641.45117188 1115.99047852 C643.67206609 1105.35627509 646.07822381 1094.76809082 648.5201416 1084.18276978 C650.98765404 1073.48582237 653.36906764 1062.77607402 655.64501953 1052.03637695 C657.64769412 1042.59928929 659.71568537 1033.17753145 661.79431152 1023.75692749 C665.00428302 1009.20796955 668.14432132 994.64727023 671.1875 980.0625 C673.56628082 968.66192998 676.04497862 957.29734269 678.71606445 945.9609375 C680.9206302 936.52566178 682.90105062 927.04800934 684.875 917.5625 C687.49640872 904.96873042 690.22916542 892.4085693 693.125 879.875 C695.72599964 868.61333586 698.24915664 857.3416519 700.64550781 846.03417969 C702.64796917 836.59781384 704.71584708 827.17679853 706.79431152 817.75692749 C710.00428302 803.20796955 713.14432132 788.64727023 716.1875 774.0625 C718.56428143 762.67151225 721.04013635 751.31626934 723.70947266 739.98950195 C726.17177712 729.45206749 728.37131905 718.86152319 730.57983398 708.26867676 C732.82351651 697.50873716 735.1210024 686.76763976 737.62915039 676.06542969 C738.62984514 672.07559055 738.62984514 672.07559055 739 668 C738.09121094 669.47146484 738.09121094 669.47146484 737.1640625 670.97265625 C732.58669985 678.35648262 727.93410086 685.673084 723.08862305 692.88378906 C719.32269625 698.49508444 715.62474536 704.14924352 711.9375 709.8125 C711.30352295 710.78606445 710.6695459 711.75962891 710.01635742 712.76269531 C708.69136502 714.79749919 707.36641475 716.83233051 706.04150391 718.8671875 C702.57534494 724.18622025 699.1001762 729.49935592 695.625 734.8125 C694.91512939 735.89789062 694.20525879 736.98328125 693.47387695 738.1015625 C692.03209432 740.30600954 690.59028113 742.5104366 689.1484375 744.71484375 C687.03597231 747.94499506 684.924122 751.17554742 682.8125 754.40625 C675.3814226 765.77505202 667.94458496 777.14004078 660.5 788.5 C648.25090852 807.19171476 636.01483006 825.89190693 623.81933594 844.61865234 C622.70002973 846.336446 621.57863219 848.05287983 620.45458984 849.76757812 C619.54744881 851.15980666 618.6501413 852.55855364 617.76806641 853.96679688 C616.89507057 855.34398497 615.95580283 856.67893613 615 858 C614.34 858 613.68 858 613 858 C613 856.35 613 854.7 613 853 C611.68 852.67 610.36 852.34 609 852 C608.87882813 852.74765625 608.75765625 853.4953125 608.6328125 854.265625 C608.46523438 855.25046875 608.29765625 856.2353125 608.125 857.25 C607.96257813 858.22453125 607.80015625 859.1990625 607.6328125 860.203125 C607.05144152 862.77264117 606.29159735 864.72071056 605 867 C604.34 867 603.68 867 603 867 C603.52537724 861.9697924 604.10594786 856.98114761 605 852 C603.35 852.33 601.7 852.66 600 853 C599.87625 854.299375 599.7525 855.59875 599.625 856.9375 C599.10136672 861.71849952 598.13686165 866.33114101 597 871 C597.99 871.33 598.98 871.66 600 872 C588.63995392 883.99180771 576.99165324 894.52381863 563.56787109 904.13769531 C559.12538856 907.35952996 554.78857766 910.71887588 550.4375 914.0625 C543.07227445 919.69524983 535.64392376 925.23223308 528.16381836 930.71118164 C522.22305473 935.07284082 516.35237656 939.52061501 510.5 944 C503.11358208 949.65353395 495.66805534 955.21470194 488.1640625 960.7109375 C482.22328567 965.07277032 476.3524674 969.52054548 470.5 974 C463.88052718 979.06651732 457.22490542 984.07426164 450.5 989 C442.80551751 994.63719029 435.20250844 1000.38641797 427.625 1006.1796875 C421.81424971 1010.62168328 415.97916676 1015.02840681 410.11889648 1019.40478516 C406.24769619 1022.30069257 402.39544823 1025.22005969 398.5546875 1028.15625 C397.61367188 1028.87554688 396.67265625 1029.59484375 395.703125 1030.3359375 C393.8607112 1031.74574032 392.01950317 1033.15712075 390.1796875 1034.5703125 C377.85722734 1044 377.85722734 1044 375 1044 C374.85045868 1043.10053146 374.70091736 1042.20106293 374.54684448 1041.27433777 C373.10740203 1032.617285 371.66709104 1023.96037721 370.22590446 1015.30361462 C369.48576882 1010.85767587 368.74592064 1006.41168976 368.00683594 1001.96557617 C364.38842138 980.19982993 360.72493328 958.44269167 356.98038197 936.69828129 C355.97419459 930.85459653 354.97542364 925.00966896 353.98046875 919.1640625 C353.83188416 918.29121109 353.68329956 917.41835968 353.5302124 916.51905823 C353.08245493 913.8877372 352.63496479 911.25637081 352.1875 908.625 C351.85287397 906.65820153 351.51823822 904.69140471 351.18359375 902.72460938 C348.42810682 886.52733238 345.67786 870.32916538 342.92807007 854.13092041 C339.96282013 836.66349524 336.99249189 819.19694142 334.01733398 801.73120117 C332.09170979 790.42488925 330.1700802 779.11791315 328.25767517 767.80935669 C327.32000407 762.26783475 326.37726448 756.72726743 325.42358398 751.18847656 C323.6544117 740.89314146 321.91984174 730.59706688 320.33485413 720.27153015 C319.6076075 715.55820793 318.85357984 710.84935163 318.09664917 706.14071655 C317.74682395 703.9200669 317.40936806 701.69742499 317.08572388 699.47280884 C314.99449497 685.13242338 311.6828628 673.78466913 303 662 C302.67 662 302.34 662 302 662 C301.78907715 662.9794458 301.5781543 663.9588916 301.36083984 664.96801758 C294.31724539 697.66402597 294.31724539 697.66402597 291 712.5 C288.66535831 722.9491983 286.38484239 733.40942964 284.125 743.875 C283.95645508 744.65518494 283.78791016 745.43536987 283.61425781 746.23919678 C281.90126653 754.16973463 280.19206659 762.10107351 278.49093628 770.03416443 C277.66213645 773.89810194 276.83161024 777.76166643 276 781.625 C275.83518127 782.39077362 275.67036255 783.15654724 275.50054932 783.94552612 C272.93385104 795.85280689 270.24435803 807.72846562 267.50100708 819.59613037 C264.6563199 831.92130973 262.0122028 844.2824116 259.43463135 856.66595459 C257.18098064 867.489029 254.83961778 878.28551659 252.375 889.0625 C249.86842796 900.02778698 247.51698169 911.01526922 245.26464844 922.03540039 C243.17941647 932.21086534 240.97727021 942.3587592 238.74389648 952.50244141 C238.44511593 953.85969308 238.1463695 955.21695226 237.84765625 956.57421875 C237.62271736 957.59609283 237.62271736 957.59609283 237.39323425 958.63861084 C236.2672498 963.76251178 235.15932921 968.8901518 234.05859375 974.01953125 C230.64782163 989.90446203 227.16078938 1005.76518081 223.50128174 1021.59475708 C220.65651524 1033.92039625 218.0122977 1046.28195565 215.43463135 1058.66595459 C213.18098096 1069.48902743 210.83969334 1080.28553438 208.375 1091.0625 C205.53774708 1103.47076346 202.90165901 1115.90713522 200.359375 1128.37890625 C198.94641956 1135.26097369 197.47207114 1142.13033466 196 1149 C100.3 1149 4.6 1149 -94 1149 C-89.64304686 1127.21523432 -85.22305655 1105.50279905 -80.1875 1083.875 C-75.4897105 1063.67786725 -71.16828105 1043.39398043 -66.921875 1023.09765625 C-66.75181946 1022.28490738 -66.58176392 1021.47215851 -66.40655518 1020.63478088 C-65.72679764 1017.38518807 -65.04704102 1014.13559515 -64.36779785 1010.88589478 C-62.09132667 1000.00781173 -59.69460354 989.16745446 -57.14794922 978.34887695 C-55.2951691 970.42575435 -53.62430387 962.47285246 -52 954.5 C-50.15932147 945.4698407 -48.22915081 936.47248328 -46.125 927.5 C-43.33784296 915.60659941 -40.74317338 903.67681971 -38.17675781 891.734375 C-37.83274759 890.13410055 -37.48867138 888.53384027 -37.14453125 886.93359375 C-36.97142426 886.12864471 -36.79831726 885.32369568 -36.6199646 884.49435425 C-35.32949694 878.50429955 -34.01909434 872.51879514 -32.69921875 866.53515625 C-32.41120392 865.2293158 -32.41120392 865.2293158 -32.11737061 863.89709473 C-31.7298342 862.14047446 -31.34226101 860.3838623 -30.95465088 858.6272583 C-28.1587015 845.95466262 -25.40621908 833.27830304 -22.8125 820.5625 C-20.81687955 810.78206435 -18.66038651 801.05293663 -16.38330078 791.33447266 C-13.85511558 780.49453445 -11.51528994 769.616397 -9.17675781 758.734375 C-8.83274759 757.13410055 -8.48867138 755.53384027 -8.14453125 753.93359375 C-7.88487076 752.7261702 -7.88487076 752.7261702 -7.6199646 751.49435425 C-6.32949694 745.50429955 -5.01909434 739.51879514 -3.69921875 733.53515625 C-3.50720886 732.66459595 -3.31519897 731.79403564 -3.11737061 730.89709473 C-2.7298342 729.14047446 -2.34226101 727.3838623 -1.95465088 725.6272583 C0.8412985 712.95466262 3.59378092 700.27830304 6.1875 687.5625 C8.18312045 677.78206435 10.33961349 668.05293663 12.61669922 658.33447266 C15.14488442 647.49453445 17.48471006 636.616397 19.82324219 625.734375 C20.16725241 624.13410055 20.51132862 622.53384027 20.85546875 620.93359375 C21.11512924 619.7261702 21.11512924 619.7261702 21.3800354 618.49435425 C22.67050306 612.50429955 23.98090566 606.51879514 25.30078125 600.53515625 C25.49279114 599.66459595 25.68480103 598.79403564 25.88262939 597.89709473 C26.2701658 596.14047446 26.65773899 594.3838623 27.04534912 592.6272583 C29.8412985 579.95466262 32.59378092 567.27830304 35.1875 554.5625 C37.18312045 544.78206435 39.33961349 535.05293663 41.61669922 525.33447266 C44.14488442 514.49453445 46.48471006 503.616397 48.82324219 492.734375 C49.16725241 491.13410055 49.51132862 489.53384027 49.85546875 487.93359375 C50.11512924 486.7261702 50.11512924 486.7261702 50.3800354 485.49435425 C51.67050306 479.50429955 52.98090566 473.51879514 54.30078125 467.53515625 C54.49279114 466.66459595 54.68480103 465.79403564 54.88262939 464.89709473 C55.2701658 463.14047446 55.65773899 461.3838623 56.04534912 459.6272583 C58.8412985 446.95466262 61.59378092 434.27830304 64.1875 421.5625 C66.18312045 411.78206435 68.33961349 402.05293663 70.61669922 392.33447266 C73.14641883 381.48795546 75.48734144 370.60315052 77.82763672 359.71459961 C78.17279091 358.1091992 78.51800634 356.50381195 78.86328125 354.8984375 C79.03680115 354.0916304 79.21032104 353.2848233 79.38909912 352.4535675 C80.65386041 346.5827432 81.93717319 340.71616285 83.23046875 334.8515625 C83.51016006 333.58317787 83.51016006 333.58317787 83.79550171 332.28916931 C84.17380657 330.57406709 84.55215343 328.85897414 84.93054199 327.14389038 C88.22744312 312.19882203 91.43453987 297.23839629 94.55612183 282.25576782 C97.07971256 270.16201793 99.77383135 258.11555422 102.56564331 246.08114624 C105.24354107 234.52198694 107.70986541 222.93063692 110.0562439 211.29986572 C112.20131916 200.66879361 114.51715083 190.09517646 117.13525391 179.56811523 C120.48336852 167.37479415 120.48336852 167.37479415 118.25390625 155.50390625 C117.36574219 154.53324219 116.47757813 153.56257812 115.5625 152.5625 C114.53455979 151.3816849 113.51003241 150.19789325 112.48828125 149.01171875 C111.92705566 148.37669434 111.36583008 147.74166992 110.78759766 147.08740234 C107.42488264 143.16071382 104.36044305 139.00213729 101.25 134.875 C99.87255459 133.06368134 98.49494914 131.25248438 97.1171875 129.44140625 C92.55630566 123.42426167 88.03778421 117.37571558 83.51806641 111.32763672 C78.70160523 104.89846994 73.78890773 98.54893506 68.84277344 92.21923828 C65.00621893 87.30631104 61.23645733 82.3500102 57.51171875 77.3515625 C54.18491742 72.89818843 50.80808823 68.48275933 47.4375 64.0625 C46.75131592 63.16241211 46.06513184 62.26232422 45.3581543 61.33496094 C41.88628053 56.78192116 38.41241234 52.23040846 34.9375 47.6796875 C33.60399895 45.93241966 32.2706647 44.1850245 30.9375 42.4375 C30.28128662 41.57737305 29.62507324 40.71724609 28.94897461 39.83105469 C23.62864393 32.84726144 18.3644435 25.82238793 13.11474609 18.78540039 C9.26910373 13.6448817 5.34700092 8.60088008 1.22265625 3.6796875 C0 2 0 2 0 0 Z " fill="#FEFEFE" transform="translate(180,456)"/>
<path d="M0 0 C83.53643599 -0.03427424 167.07287284 -0.06607385 250.60931396 -0.08468628 C251.84540684 -0.08496239 253.08149972 -0.08523851 254.35504996 -0.08552299 C281.217783 -0.09150861 308.08051613 -0.097049 334.94324936 -0.10213066 C348.11646313 -0.10462536 361.28967688 -0.10721847 374.46289062 -0.10986328 C375.7737934 -0.1101248 377.08469618 -0.11038632 378.43532328 -0.11065576 C420.93603745 -0.11918056 463.4367463 -0.13420475 505.93745725 -0.15259444 C549.6074099 -0.17145576 593.27735961 -0.18376999 636.94731626 -0.18782998 C643.11343454 -0.1884063 649.27955281 -0.18905758 655.44567108 -0.18975449 C656.65926813 -0.18988933 657.87286517 -0.19002418 659.12323789 -0.19016311 C678.66968398 -0.19252782 698.21612098 -0.20180737 717.76256336 -0.21366407 C737.40673083 -0.22543279 757.05088929 -0.2299374 776.69506016 -0.22700275 C788.37025169 -0.22548002 800.04541024 -0.22955125 811.72059582 -0.24159509 C819.51826509 -0.24909037 827.31591274 -0.24933045 835.1135835 -0.24366363 C839.55743387 -0.24064205 844.00122183 -0.24078219 848.44506553 -0.24976636 C852.49139033 -0.25788468 856.53760427 -0.25671552 860.58392745 -0.24827995 C862.03521489 -0.24685678 863.48651057 -0.24875467 864.93778744 -0.25447049 C885.97002583 -0.33202337 900.20223 4.42717959 915.1953125 19.16796875 C916.12085938 20.10253906 917.04640625 21.03710938 918 22 C921.45205081 25.47135028 921.45205081 25.47135028 924.9921875 28.8515625 C935.04061006 38.31625927 945.17378971 53.9037399 946.22070312 67.96411133 C946.39761699 77.62232441 944.7305296 86.37445234 942.5 95.6875 C942.13245654 97.27463819 941.76644201 98.86213113 941.40185547 100.44995117 C940.46374969 104.52194287 939.50934895 108.58991709 938.55065918 112.65710449 C937.21543291 118.33810599 935.91091817 124.02625081 934.60647583 129.71438599 C934.28364483 131.12117777 933.9601304 132.52781288 933.63595581 133.93429565 C930.39361582 148.00999259 927.40333727 162.13602093 924.42645264 176.26986694 C921.51238224 190.09051497 918.46702946 203.87176174 915.25 217.625 C912.40897113 229.77224492 909.7150975 241.93132327 907.23291016 254.15820312 C905.29530593 263.6698373 903.23535535 273.15050583 901.125 282.625 C900.95569977 283.38544617 900.78639954 284.14589233 900.61196899 284.92938232 C898.79076029 293.09886898 896.94658093 301.26274654 895.0625 309.41796875 C894.41644946 312.21609576 893.77055232 315.014258 893.125 317.8125 C892.88210739 318.86482819 892.88210739 318.86482819 892.63430786 319.93841553 C889.39278279 334.0127807 886.4030315 348.13747266 883.42645264 362.26986694 C880.51238224 376.09051497 877.46702946 389.87176174 874.25 403.625 C871.40881115 415.77292896 868.71373265 427.93250714 866.23291016 440.16040039 C864.91643029 446.62610968 863.55914522 453.08033079 862.13671875 459.5234375 C861.97482056 460.25924042 861.81292236 460.99504333 861.64611816 461.75314331 C860.80850411 465.54164848 859.94967435 469.32362431 859.05517578 473.09912109 C857.20876303 480.97440233 855.71316206 488.73413192 854.73046875 496.765625 C851.73732776 519.23272674 851.73732776 519.23272674 845.19677734 525.82568359 C838.52399341 530.89542963 830.58887008 533.77634064 822.77050781 536.58349609 C817.0647365 538.66104442 811.75318673 541.5143299 806.375 544.3125 C804.41041923 545.29350509 802.44430958 546.27145536 800.4765625 547.24609375 C794.77008887 550.09933057 789.13335186 553.07458659 783.50146484 556.0715332 C775.79019604 560.15344672 767.9768178 564.0282889 760.16485596 567.91244507 C752.0276513 571.96038148 743.94342447 576.09044074 735.9206543 580.36083984 C726.37448582 585.42503642 716.68260919 590.20341401 707 595 C710.96027876 598.29896542 715.10366498 601.10573558 719.4375 603.875 C720.17049316 604.34623291 720.90348633 604.81746582 721.65869141 605.30297852 C724.10338113 606.87245609 726.55126242 608.43684613 729 610 C729.86995605 610.55574707 730.73991211 611.11149414 731.63623047 611.68408203 C742.01225819 618.30847394 752.41070626 624.89710378 762.82250977 631.46508789 C768.82772516 635.25499327 774.8221864 639.0615896 780.8125 642.875 C781.71709961 643.45080811 782.62169922 644.02661621 783.55371094 644.61987305 C788.44228332 647.73247149 793.3291509 650.8477275 798.21484375 653.96484375 C799.22506592 654.6088916 800.23528809 655.25293945 801.27612305 655.91650391 C803.22473096 657.15883943 805.17282951 658.40197432 807.12036133 659.64599609 C807.99329834 660.2023877 808.86623535 660.7587793 809.765625 661.33203125 C810.53680664 661.82421143 811.30798828 662.3163916 812.10253906 662.82348633 C813.98391578 664.02998058 813.98391578 664.02998058 816 665 C815.35576197 674.34611987 813.33773982 683.31793445 811.3125 692.4375 C810.94679292 694.10406301 810.58156434 695.77073108 810.21679688 697.4375 C809.15221626 702.29337949 808.07760009 707.14699535 807 712 C806.58693604 713.86229248 806.58693604 713.86229248 806.16552734 715.76220703 C805.20831348 720.07310814 804.24965617 724.38367416 803.28588867 728.69311523 C801.8760709 735.00881643 800.49236704 741.32957626 799.1328125 747.65625 C798.97025467 748.41257721 798.80769684 749.16890442 798.64021301 749.94815063 C798.30513438 751.50752314 797.97007708 753.06690024 797.63504028 754.62628174 C797.38257034 755.80127228 797.38257034 755.80127228 797.125 757 C796.95612274 757.78606628 796.78724548 758.57213257 796.61325073 759.38201904 C794.18898275 770.65207937 791.66361828 781.8945702 789.0625 793.125 C785.56475746 808.23247384 782.3678102 823.39587245 779.21728516 838.57910156 C776.96989356 849.40443611 774.66058091 860.21013678 772.2355957 870.99731445 C770.12741111 880.38332518 768.0898267 889.78376958 766.0625 899.1875 C763.53643827 910.89928158 761.00099957 922.60885096 758.4375 934.3125 C758.29432343 934.96617554 758.15114685 935.61985107 758.00363159 936.29333496 C757.42850755 938.91865661 756.8532445 941.54394773 756.27775574 944.16918945 C755.29176701 948.66715836 754.30752534 953.16550653 753.32421875 957.6640625 C750.83467837 969.05324234 748.34360654 980.44206196 745.83984375 991.828125 C745.08063749 995.28122985 744.32151622 998.73435337 743.5625 1002.1875 C743.37356171 1003.04706299 743.18462341 1003.90662598 742.98995972 1004.79223633 C739.87461695 1018.97019431 736.79249652 1033.1551325 733.73852539 1047.34643555 C733.13715918 1050.14074296 732.53240762 1052.93428427 731.92504883 1055.72729492 C731.26251374 1058.77461818 730.61457372 1061.82474816 729.97143555 1064.8762207 C729.62440925 1066.49565328 729.27716531 1068.11503924 728.9296875 1069.734375 C728.77461227 1070.4825499 728.61953705 1071.23072479 728.45976257 1072.00157166 C725.32948785 1086.44710159 713.40657138 1098.03744233 703 1108 C702.236875 1108.804375 701.47375 1109.60875 700.6875 1110.4375 C692.29822316 1118.43657791 682.73383262 1124.78358096 673 1131 C672.22269531 1131.50144531 671.44539063 1132.00289062 670.64453125 1132.51953125 C656.45264057 1141.61226884 641.61147206 1150.12860721 624.29398632 1150.12304783 C623.62975136 1150.12420167 622.9655164 1150.12535552 622.28115311 1150.12654433 C620.05168326 1150.12919471 617.82228538 1150.12470182 615.59281921 1150.12025452 C613.97983162 1150.12069054 612.3668441 1150.12156602 610.75385696 1150.12284368 C606.31853088 1150.12508251 601.8832289 1150.12107569 597.4479059 1150.11606562 C592.66608135 1150.11175256 587.8842582 1150.11320816 583.10243225 1150.1139679 C574.81659815 1150.11449259 566.53077192 1150.1113515 558.2449398 1150.10573006 C546.26497429 1150.09760765 534.28501259 1150.09499907 522.30504463 1150.09374207 C502.86896965 1150.09155272 483.43289887 1150.08489579 463.99682617 1150.07543945 C445.11499045 1150.06626232 426.23315586 1150.05918296 407.35131836 1150.05493164 C406.1877037 1150.05466892 405.02408904 1150.05440619 403.82521334 1150.05413551 C397.98777873 1150.05283048 392.15034411 1150.05156677 386.31290948 1150.05032361 C337.87527009 1150.03995463 289.43763525 1150.02233948 241 1150 C241.79060818 1146.03823237 242.58189345 1142.07660025 243.37329102 1138.11499023 C243.59478065 1137.00505455 243.81627029 1135.89511887 244.04447174 1134.75154877 C245.95759237 1125.17758994 247.92388226 1115.61578356 249.9375 1106.0625 C250.10741455 1105.25449951 250.2773291 1104.44649902 250.45239258 1103.61401367 C252.74886519 1092.7071008 255.15365579 1081.83380188 257.71069336 1070.98461914 C259.96144969 1061.35482963 261.98243698 1051.68065914 264 1042 C266.45110845 1030.24600376 268.97645923 1018.51990425 271.71313477 1006.82836914 C273.67122914 998.45707259 275.56979449 990.07374287 277.43774414 981.6819458 C277.7567413 980.24930261 278.07634106 978.81679337 278.39672852 977.38446045 C282.07088114 960.95216748 285.50578779 944.47271473 289 928 C348.73 927.67 408.46 927.34 470 927 C473.96 908.19 473.96 908.19 478 889 C481 875.9375 481 875.9375 482.4453125 869.76171875 C484.33684519 861.6089423 486.10897443 853.4307012 487.875 845.25 C488.04288025 844.47255432 488.2107605 843.69510864 488.38372803 842.894104 C490.30883846 833.96758727 492.20806824 825.03586844 494.078125 816.09765625 C494.24818054 815.28490738 494.41823608 814.47215851 494.59344482 813.63478088 C495.27320236 810.38518807 495.95295898 807.13559515 496.63220215 803.88589478 C498.90867333 793.00781173 501.30539646 782.16745446 503.85205078 771.34887695 C505.98864501 762.21206797 507.87383188 753.03023723 509.74609375 743.83618164 C511.64411875 734.57399352 513.72034416 725.36262386 515.87963867 716.15820312 C517.63366199 708.66347452 519.27282372 701.15212685 520.79541016 693.60693359 C521.89862917 688.20274166 521.89862917 688.20274166 523 686 C522.49661008 686.25215586 521.99322016 686.50431171 521.474576 686.76410866 C509.17035763 692.92730725 496.86499111 699.08820814 484.55841541 705.24669838 C478.60684824 708.225083 472.65565333 711.2042048 466.70532227 714.18505859 C460.95497193 717.06569597 455.20362554 719.94433571 449.45160484 722.8216362 C447.26540778 723.91565329 445.07956085 725.01037034 442.89408302 726.10582352 C411.18131427 742 411.18131427 742 407 742 C406.83508057 741.37996094 406.67016113 740.75992188 406.50024414 740.12109375 C400.34959836 717.0388478 393.90038635 694.04339303 387.30615234 671.08422852 C385.81011359 665.86644916 384.33791277 660.64230805 382.87890625 655.4140625 C382.1072081 652.65091932 381.33508081 649.88789652 380.5625 647.125 C380.27324646 646.09048203 380.27324646 646.09048203 379.97814941 645.0350647 C377.50936172 636.2185754 374.95339764 627.43542135 372.25 618.6875 C370.08732797 611.6468494 367.96132505 604.59974701 366 597.5 C365.77989258 596.74033936 365.55978516 595.98067871 365.33300781 595.19799805 C365.14061523 594.48297119 364.94822266 593.76794434 364.75 593.03125 C364.57984375 592.41830078 364.4096875 591.80535156 364.234375 591.17382812 C363.61635748 585.44171561 365.45302158 579.51179873 366.63671875 573.91796875 C366.79646683 573.15542282 366.9562149 572.39287689 367.12080383 571.60722351 C367.64026349 569.13338909 368.16355623 566.66038833 368.6875 564.1875 C368.86740479 563.33520813 369.04730957 562.48291626 369.23266602 561.60479736 C374.25787083 537.81529948 374.25787083 537.81529948 376.75366211 527.87255859 C378.11174783 522.36972232 379.18595067 516.93239413 379.9190979 511.31642151 C383.55364943 483.84690254 383.55364943 483.84690254 392.3828125 476.8984375 C397.8062595 473.49162698 403.55376093 470.96090822 409.46875 468.53222656 C415.22501069 466.03455703 420.50050777 462.78250182 425.875 459.5625 C428.03657691 458.30950429 430.20066678 457.06083422 432.3671875 455.81640625 C433.45225586 455.19137207 434.53732422 454.56633789 435.65527344 453.92236328 C442.01848122 450.26514444 448.39364442 446.62886364 454.76794434 442.99102783 C467.5364814 435.70310446 480.27075876 428.35630831 493 421 C506.90194222 412.96598044 520.81563353 404.95362625 534.76089478 396.99505615 C541.13938125 393.35441455 547.51438499 389.70799562 553.87890625 386.04296875 C554.99152832 385.40399658 556.10415039 384.76502441 557.25048828 384.10668945 C559.44411176 382.83556501 561.62891275 381.54908194 563.80419922 380.24682617 C568.63938609 377.37133538 573.26373435 374.78701862 578.56640625 372.8828125 C583.9793558 370.7906346 588.43949019 368.72726895 592 364 C596.18339481 354.20521785 597.5331152 343.4569751 599.17724609 333.00195312 C600.34092773 325.71509374 601.92687096 318.51951972 603.48919678 311.30981445 C604.00209442 308.92777291 604.50326446 306.54356244 605.00048828 304.15820312 C607.49343872 292.20597736 610.16164447 280.29918068 612.94726562 268.41186523 C616.53741547 252.98531842 619.71056082 237.50735614 623 222 C453.38 222 283.76 222 109 222 C109.60620726 217.15034196 110.19496071 212.68714249 111.234375 207.97265625 C112.01161336 204.43044579 112.78565588 200.88964774 113.51831055 197.33789062 C114.78743773 191.23102472 116.1718292 185.26323555 118.03515625 179.30859375 C121.3407505 168.84388051 121.3407505 168.84388051 119.96386719 158.26611328 C116.77425887 152.66927295 112.58441383 148.02237918 108.17626953 143.35986328 C104.72173691 139.61390049 101.70092698 135.5571336 98.625 131.5 C97.46050032 130.00482016 96.2939077 128.5112675 95.125 127.01953125 C91.86459986 122.83800971 88.67997939 118.60323945 85.51171875 114.3515625 C82.18491742 109.89818843 78.80808823 105.48275933 75.4375 101.0625 C74.40822388 99.71236816 74.40822388 99.71236816 73.3581543 98.33496094 C69.88628053 93.78192116 66.41241234 89.23040846 62.9375 84.6796875 C56.37833702 76.08541816 49.8457866 67.47355415 43.375 58.8125 C37.94909653 51.55158464 32.4309389 44.36980165 26.84936523 37.22802734 C22.96143438 32.249924 19.14097588 27.23138514 15.375 22.16015625 C13.45766492 19.60896533 11.5186975 17.07985591 9.5625 14.55859375 C8.96381104 13.78459229 8.36512207 13.01059082 7.74829102 12.21313477 C6.55739206 10.67541881 5.3626686 9.14065585 4.16381836 7.60913086 C3.62378174 6.91053955 3.08374512 6.21194824 2.52734375 5.4921875 C2.03999756 4.86683105 1.55265137 4.24147461 1.05053711 3.59716797 C0 2 0 2 0 0 Z " fill="#FEFEFE" transform="translate(964,190)"/>
<path d="M0 0 C0.66 1.98 1.32 3.96 2 6 C2.59131714 5.02208496 2.59131714 5.02208496 3.19458008 4.02441406 C5 2 5 2 7.26831055 1.54589844 C8.56442261 1.57731934 8.56442261 1.57731934 9.88671875 1.609375 C10.82451172 1.62226562 11.76230469 1.63515625 12.72851562 1.6484375 C13.70498047 1.68195313 14.68144531 1.71546875 15.6875 1.75 C16.67556641 1.76804687 17.66363281 1.78609375 18.68164062 1.8046875 C21.12206842 1.85184553 23.56054769 1.91763958 26 2 C25.67 3.65 25.34 5.3 25 7 C23.35 7 21.7 7 20 7 C19.71125 8.010625 19.4225 9.02125 19.125 10.0625 C18.08333333 13.70833333 17.04166667 17.35416667 16 21 C14.35 21 12.7 21 11 21 C11.31082872 19.24970238 11.62373179 17.49977306 11.9375 15.75 C12.19853516 14.28820313 12.19853516 14.28820313 12.46484375 12.796875 C12.90379729 10.50278205 13.40348592 8.25708029 14 6 C13.01 5.67 12.02 5.34 11 5 C11 4.34 11 3.68 11 3 C10.34 3 9.68 3 9 3 C8.690625 3.804375 8.38125 4.60875 8.0625 5.4375 C7 8 7 8 6 9 C5.92755947 11.01964199 5.91622812 13.04167124 5.9375 15.0625 C5.94652344 16.16722656 5.95554687 17.27195312 5.96484375 18.41015625 C5.97644531 19.26480469 5.98804688 20.11945313 6 21 C4.35 21.66 2.7 22.32 1 23 C0.34 20.03 -0.32 17.06 -1 14 C-1.99 16.31 -2.98 18.62 -4 21 C-5.65 21 -7.3 21 -9 21 C-8.34 19.906875 -7.68 18.81375 -7 17.6875 C-4.66692414 13.14328604 -4.76810182 9.33641623 -5.15234375 4.3203125 C-5.10207031 3.55460937 -5.05179688 2.78890625 -5 2 C-2 0 -2 0 0 0 Z " fill="#111111" transform="translate(1044,1306)"/>
<path d="M0 0 C3.96 0 7.92 0 12 0 C11.50584892 6.58868105 10.79840318 12.64564211 9 19 C4.71 19 0.42 19 -4 19 C-3.51561128 12.1216802 -2.39759821 6.46309082 0 0 Z " fill="#0B0B0B" transform="translate(764,1308)"/>
<path d="M0 0 C4.62 0 9.24 0 14 0 C14 8.4 14 8.4 13 11 C12.01 11.495 12.01 11.495 11 12 C11 14.31 11 16.62 11 19 C9.35 19.66 7.7 20.32 6 21 C5.67 17.37 5.34 13.74 5 10 C5.99 9.34 6.98 8.68 8 8 C8.72965366 5.43717258 8.72965366 5.43717258 9 3 C7.68 3 6.36 3 5 3 C4.2717552 7.99367864 3.61512818 12.99109914 3 18 C1.35 18.33 -0.3 18.66 -2 19 C-1.45118943 12.64780958 -0.83488387 6.32126362 0 0 Z " fill="#0B0B0B" transform="translate(918,1308)"/>
<path d="M0 0 C4.29 0 8.58 0 13 0 C12.67 2.31 12.34 4.62 12 7 C9.36 6.01 6.72 5.02 4 4 C4 4.99 4 5.98 4 7 C3.01 7.33 2.02 7.66 1 8 C1.350625 8.598125 1.70125 9.19625 2.0625 9.8125 C3 12 3 12 2 15 C3.32 15 4.64 15 6 15 C5.01 12.69 4.02 10.38 3 8 C5.875 7.875 5.875 7.875 9 8 C9.66 8.66 10.32 9.32 11 10 C10.96692593 13.05383879 10.43304158 15.96870896 10 19 C5.71 19 1.42 19 -3 19 C-2.44912716 12.48133812 -1.53808217 6.35740629 0 0 Z " fill="#0B0B0B" transform="translate(901,1308)"/>
<path d="M0 0 C2.64 0 5.28 0 8 0 C8 6.27 8 12.54 8 19 C6.35 19 4.7 19 3 19 C2.01 17.02 1.02 15.04 0 13 C0.99 13 1.98 13 3 13 C2.67 11.68 2.34 10.36 2 9 C0.68 10.32 -0.64 11.64 -2 13 C-1.67 13.99 -1.34 14.98 -1 16 C-1.33 16.99 -1.66 17.98 -2 19 C-3.98 19 -5.96 19 -8 19 C-6.85508207 16.2079547 -5.70910806 13.41635112 -4.5625 10.625 C-4.23701172 9.8309375 -3.91152344 9.036875 -3.57617188 8.21875 C-3.10727539 7.07792969 -3.10727539 7.07792969 -2.62890625 5.9140625 C-2.34088135 5.2123291 -2.05285645 4.5105957 -1.75610352 3.78759766 C-1.21398164 2.50590041 -0.62235745 1.24471489 0 0 Z " fill="#080808" transform="translate(887,1308)"/>
<path d="M0 0 C1.98 0 3.96 0 6 0 C5 7.42857143 5 7.42857143 4 11 C4.99 10.67 5.98 10.34 7 10 C7.66 6.7 8.32 3.4 9 0 C10.65 0 12.3 0 14 0 C13.22095672 10.55808656 13.22095672 10.55808656 11 15 C9.68 15 8.36 15 7 15 C6.67 16.32 6.34 17.64 6 19 C4.68 19 3.36 19 2 19 C2 17.68 2 16.36 2 15 C1.01 15 0.02 15 -1 15 C-1.10662326 9.88208358 -0.71167986 5.07071901 0 0 Z " fill="#121212" transform="translate(744,1308)"/>
<path d="M0 0 C2.64 0 5.28 0 8 0 C8 6.27 8 12.54 8 19 C6.35 19 4.7 19 3 19 C2.01 17.02 1.02 15.04 0 13 C1.32 13 2.64 13 4 13 C3.67 10.69 3.34 8.38 3 6 C2.01 7.98 1.02 9.96 0 12 C-0.66 12 -1.32 12 -2 12 C-1.814375 12.78375 -1.62875 13.5675 -1.4375 14.375 C-1 17 -1 17 -2 19 C-3.65 19 -5.3 19 -7 19 C-6.33392561 14.59041892 -4.73375271 10.73427814 -2.9375 6.6875 C-2.65583984 6.04232422 -2.37417969 5.39714844 -2.08398438 4.73242188 C-1.3937257 3.15301642 -0.69746802 1.57623507 0 0 Z " fill="#040404" transform="translate(942,1308)"/>
<path d="M0 0 C4.29 0 8.58 0 13 0 C13 1.65 13 3.3 13 5 C10.69 4.67 8.38 4.34 6 4 C6 4.99 6 5.98 6 7 C7.65 7 9.3 7 11 7 C9.1875 9 9.1875 9 7 11 C6.01 11 5.02 11 4 11 C4 12.32 4 13.64 4 15 C5.98 14.67 7.96 14.34 10 14 C10 15.65 10 17.3 10 19 C6.04 19 2.08 19 -2 19 C-1.67 17.35 -1.34 15.7 -1 14 C-0.12241588 9.22272868 0.18283102 4.845022 0 0 Z " fill="#0E0E0E" transform="translate(1020,1308)"/>
<path d="M0 0 C4.95 0 9.9 0 15 0 C13.65221843 10.41467577 13.65221843 10.41467577 10.5625 13.1875 C8 14 8 14 5 14 C5 12.68 5 11.36 5 10 C6.32 9.67 7.64 9.34 9 9 C9 7.35 9 5.7 9 4 C7.68 4 6.36 4 5 4 C5.020625 4.804375 5.04125 5.60875 5.0625 6.4375 C5 9 5 9 4 10 C3.76807135 11.51469448 3.58784762 13.03754562 3.4375 14.5625 C3.35371094 15.38878906 3.26992188 16.21507812 3.18359375 17.06640625 C3.12300781 17.70449219 3.06242188 18.34257813 3 19 C1.35 19 -0.3 19 -2 19 C-1.37802877 12.66118686 -0.71457113 6.32905858 0 0 Z " fill="#0D0D0D" transform="translate(955,1308)"/>
<path d="M0 0 C4.95 0 9.9 0 15 0 C14.67 1.65 14.34 3.3 14 5 C12.35 5 10.7 5 9 5 C8.566875 6.5159375 8.566875 6.5159375 8.125 8.0625 C7.08333333 11.70833333 6.04166667 15.35416667 5 19 C3.35 19 1.7 19 0 19 C0.31082872 17.24970238 0.62373179 15.49977306 0.9375 13.75 C1.11152344 12.77546875 1.28554687 11.8009375 1.46484375 10.796875 C1.90379729 8.50278205 2.40348592 6.25708029 3 4 C2.01 3.67 1.02 3.34 0 3 C0 2.01 0 1.02 0 0 Z " fill="#0E0E0E" transform="translate(1055,1308)"/>
<path d="M0 0 C5.28 0 10.56 0 16 0 C15.67 1.65 15.34 3.3 15 5 C13.68 5 12.36 5 11 5 C11 4.34 11 3.68 11 3 C10.34 3 9.68 3 9 3 C8.95101562 3.65226562 8.90203125 4.30453125 8.8515625 4.9765625 C8.42757771 9.93279853 7.84334427 14.33019451 6 19 C4.68 19 3.36 19 2 19 C2.14183696 17.24967156 2.28863429 15.49974466 2.4375 13.75 C2.51871094 12.77546875 2.59992187 11.8009375 2.68359375 10.796875 C2.95074584 8.43538247 3.35371968 6.28098935 4 4 C3.34 4 2.68 4 2 4 C1.34 2.68 0.68 1.36 0 0 Z " fill="#0E0E0E" transform="translate(1001,1308)"/>
<path d="M0 0 C2.31 0 4.62 0 7 0 C6.37968409 6.57534861 4.85102717 12.66692592 3 19 C1.68 19 0.36 19 -1 19 C-0.67 16.36 -0.34 13.72 0 11 C-1.32 10.34 -2.64 9.68 -4 9 C-4 8.67 -4 8.34 -4 8 C-2.35 8 -0.7 8 1 8 C1.20970559 3.85906302 1.20970559 3.85906302 0 0 Z " fill="#0B0B0B" transform="translate(981,1308)"/>
<path d="M0 0 C1.98 0 3.96 0 6 0 C5.74438677 2.3431213 5.40729228 4.67843403 5 7 C4.01 7.495 4.01 7.495 3 8 C3.33 8.33 3.66 8.66 4 9 C3.91036938 10.69141656 3.75422324 12.37959602 3.5625 14.0625 C3.46066406 14.98160156 3.35882812 15.90070313 3.25390625 16.84765625 C3.12822266 17.91306641 3.12822266 17.91306641 3 19 C1.35 19 -0.3 19 -2 19 C-1.37802877 12.66118686 -0.71457113 6.32905858 0 0 Z " fill="#1A1A1A" transform="translate(973,1308)"/>
<path d="M0 0 C0.33 2.97 0.66 5.94 1 9 C0.01 9.33 -0.98 9.66 -2 10 C-1.95875 11.258125 -1.9175 12.51625 -1.875 13.8125 C-1.7609626 17.29064073 -1.94074319 17.91111478 -4 21 C-6.625 21.1875 -6.625 21.1875 -9 21 C-8.34 19.906875 -7.68 18.81375 -7 17.6875 C-4.66692414 13.14328604 -4.76810182 9.33641623 -5.15234375 4.3203125 C-5.10207031 3.55460937 -5.05179688 2.78890625 -5 2 C-2 0 -2 0 0 0 Z " fill="#252525" transform="translate(1044,1306)"/>
<path d="M0 0 C4.29 0 8.58 0 13 0 C12.67 2.31 12.34 4.62 12 7 C9.36 6.01 6.72 5.02 4 4 C4 4.99 4 5.98 4 7 C2.35 7 0.7 7 -1 7 C-0.67 4.69 -0.34 2.38 0 0 Z " fill="#121212" transform="translate(901,1308)"/>
<path d="M0 0 C0.99 0 1.98 0 3 0 C2.85831863 1.43791516 2.71148957 2.8753237 2.5625 4.3125 C2.48128906 5.11300781 2.40007813 5.91351562 2.31640625 6.73828125 C2 9 2 9 1 12 C0.01 12 -0.98 12 -2 12 C-2.17835515 7.45194365 -1.99785435 4.1205746 0 0 Z " fill="#DCDCDC" transform="translate(768,1311)"/>
<path d="M0 0 C0.33 0.66 0.66 1.32 1 2 C1.99 2.33 2.98 2.66 4 3 C3.34 3 2.68 3 2 3 C2.185625 3.78375 2.37125 4.5675 2.5625 5.375 C3 8 3 8 2 10 C0.35 10 -1.3 10 -3 10 C-2.39009109 6.44219804 -1.4216319 3.3171411 0 0 Z " fill="#151515" transform="translate(938,1317)"/>
<path d="M0 0 C1.65 0 3.3 0 5 0 C4.34 0.66 3.68 1.32 3 2 C3.33 2.99 3.66 3.98 4 5 C3.67 5.99 3.34 6.98 3 8 C1.02 8 -0.96 8 -3 8 C-2.01 5.36 -1.02 2.72 0 0 Z " fill="#151515" transform="translate(882,1319)"/>
<path d="M0 0 C1.32 0 2.64 0 4 0 C4.1875 2.375 4.1875 2.375 4 5 C3.01 5.66 2.02 6.32 1 7 C-0.19232613 9.05003955 -0.19232613 9.05003955 -1 11 C-2.60080151 6.99799622 -1.29279692 3.95443764 0 0 Z " fill="#C5C5C5" transform="translate(923,1311)"/>
<path d="M0 0 C-0.875 6.875 -0.875 6.875 -2 8 C-3.66617115 8.04063832 -5.33388095 8.042721 -7 8 C-3.34782609 0 -3.34782609 0 0 0 Z " fill="#090909" transform="translate(1042,1319)"/>
<path d="M0 0 C1.32 0.66 2.64 1.32 4 2 C3.67 3.98 3.34 5.96 3 8 C1.02 8.33 -0.96 8.66 -3 9 C-3.33 8.34 -3.66 7.68 -4 7 C-3.01 7 -2.02 7 -1 7 C-0.67 4.69 -0.34 2.38 0 0 Z " fill="#D9D9D9" transform="translate(979,1308)"/>
<path d="M0 0 C1.98 0 3.96 0 6 0 C6 1.65 6 3.3 6 5 C4.35 5.33 2.7 5.66 1 6 C0.67 4.02 0.34 2.04 0 0 Z " fill="#0B0B0B" transform="translate(973,1308)"/>
<path d="M0 0 C1.32 0 2.64 0 4 0 C4 1.65 4 3.3 4 5 C3.071875 5.12375 3.071875 5.12375 2.125 5.25 C-0.18437567 5.81258459 -0.18437567 5.81258459 -1.25 8.0625 C-1.4975 8.701875 -1.745 9.34125 -2 10 C-1.33333333 6.66666667 -0.66666667 3.33333333 0 0 Z " fill="#CECECE" transform="translate(960,1312)"/>
<path d="M0 0 C2.64 0 5.28 0 8 0 C6.02 0.99 6.02 0.99 4 2 C4.99 3.485 4.99 3.485 6 5 C6 5.99 6 6.98 6 8 C4.68 8 3.36 8 2 8 C2.04125 7.236875 2.0825 6.47375 2.125 5.6875 C2.22080824 2.77281584 2.22080824 2.77281584 0 0 Z " fill="#D2D2D2" transform="translate(901,1315)"/>
<path d="M0 0 C0.33 0 0.66 0 1 0 C1 2.64 1 5.28 1 8 C-0.32 8 -1.64 8 -3 8 C-1.125 1.125 -1.125 1.125 0 0 Z " fill="#989898" transform="translate(945,1313)"/>
<path d="M0 0 C0.33 0 0.66 0 1 0 C1.25 2.8125 1.25 2.8125 1 6 C-1 7.875 -1 7.875 -3 9 C-3.66 7.68 -4.32 6.36 -5 5 C-4.01 4.67 -3.02 4.34 -2 4 C-0.79117904 1.99983534 -0.79117904 1.99983534 0 0 Z " fill="#C7C7C7" transform="translate(889,1315)"/>
<path d="M0 0 C0.66 0.33 1.32 0.66 2 1 C1.67 1.33 1.34 1.66 1 2 C1.99 2.33 2.98 2.66 4 3 C3.67 3.99 3.34 4.98 3 6 C3 5.34 3 4.68 3 4 C1.02 4.33 -0.96 4.66 -3 5 C-3 3.68 -3 2.36 -3 1 C-2.01 0.67 -1.02 0.34 0 0 Z " fill="#BEBEBE" transform="translate(1027,1318)"/>
</svg>
