<?xml version="1.0" encoding="UTF-8"?>
<svg version="1.1" xmlns="http://www.w3.org/2000/svg" width="2000" height="2000">
<path d="M0 0 C660 0 1320 0 2000 0 C2000 660 2000 1320 2000 2000 C1340 2000 680 2000 0 2000 C0 1340 0 680 0 0 Z " fill="#FEFEFE" transform="translate(0,0)"/>
<path d="M0 0 C88.47791895 -0.03274339 176.9558389 -0.06408737 277.82267761 -0.08468628 C279.20667357 -0.08496518 280.59066953 -0.08524408 281.97466549 -0.08552299 C311.02518873 -0.09136838 340.07571203 -0.09680181 369.12623543 -0.10175936 C383.71930399 -0.10425014 398.31237253 -0.10682009 412.90544106 -0.10946488 C415.10674856 -0.10986338 417.30805607 -0.11025962 419.50936357 -0.11065576 C453.40586096 -0.11677563 487.30235692 -0.12459306 521.19885254 -0.1373291 C521.92764155 -0.1376029 522.65643057 -0.1378767 523.40730409 -0.13815879 C535.15751918 -0.14258353 546.90773421 -0.14715075 558.65794924 -0.15173688 C592.5027508 -0.1649444 626.34755127 -0.17709809 660.19235516 -0.18227959 C660.88836971 -0.18238666 661.58438427 -0.18249373 662.30149018 -0.18260404 C677.58082379 -0.18493559 692.86015741 -0.18672529 708.13949115 -0.18800197 C714.28741333 -0.18852521 720.4353355 -0.18912645 726.58325768 -0.18975449 C727.25612028 -0.18982134 727.92898289 -0.18988819 728.62223527 -0.18995707 C750.30070773 -0.19214981 771.97917197 -0.20069141 793.65764111 -0.21256442 C816.10332642 -0.22482774 838.54900306 -0.23002899 860.99469171 -0.22700275 C873.93873144 -0.22547916 886.88274144 -0.22955892 899.82677582 -0.24159509 C908.46894747 -0.24908359 917.11109961 -0.24933524 925.7532726 -0.24366363 C930.68028261 -0.24063849 935.60723632 -0.24079674 940.53424034 -0.24976636 C945.01780229 -0.25786678 949.50126404 -0.25673271 953.98482447 -0.24827995 C955.59551309 -0.24685323 957.20620911 -0.24876951 958.81688828 -0.25447049 C984.9613772 -0.34113011 1009.11724874 7.45625684 1028 26 C1029.4280448 27.28144905 1030.86504042 28.55302218 1032.3125 29.8125 C1032.95703125 30.37710938 1033.6015625 30.94171875 1034.265625 31.5234375 C1035.65855551 32.70931077 1037.10329549 33.83419903 1038.5625 34.9375 C1042.12294893 37.95018756 1045.00526332 41.43512307 1048 45 C1048.71542969 45.82757813 1049.43085937 46.65515625 1050.16796875 47.5078125 C1058.31834852 57.13115247 1064.39614638 67.42248721 1069.8125 78.75 C1070.18568359 79.52988281 1070.55886719 80.30976563 1070.94335938 81.11328125 C1081.38901587 103.52120498 1078.34496027 124.60038978 1073 148 C1072.57388428 149.87244385 1072.57388428 149.87244385 1072.13916016 151.78271484 C1070.86646215 157.36432117 1069.58624827 162.94415789 1068.29492188 168.52148438 C1065.3837487 181.12966627 1062.67405596 193.77714768 1060 206.4375 C1057.01569885 220.5546727 1054.01171281 234.66580452 1050.875 248.75 C1050.71288025 249.47817932 1050.5507605 250.20635864 1050.38372803 250.956604 C1048.64377725 258.76024961 1046.87751278 266.55750161 1045.078125 274.34765625 C1044.42676818 277.16919822 1043.77564972 279.99079488 1043.125 282.8125 C1042.96304138 283.51468658 1042.80108276 284.21687317 1042.63421631 284.94033813 C1039.61120703 298.07558421 1036.78821618 311.25064561 1034 324.4375 C1031.01487389 338.55450538 1028.01171522 352.6657937 1024.875 366.75 C1024.71288025 367.47817932 1024.5507605 368.20635864 1024.38372803 368.956604 C1022.64377722 376.76024978 1020.8774962 384.55749768 1019.078125 392.34765625 C1018.42682204 395.16921062 1017.77575613 397.99081946 1017.125 400.8125 C1016.96270905 401.51568359 1016.80041809 402.21886719 1016.63320923 402.94335938 C1013.39133938 417.01909523 1010.40177767 431.14525599 1007.42443848 445.27893066 C1004.55009119 458.90858087 1001.5507804 472.49997646 998.375 486.0625 C995.36277302 498.92747992 992.50755587 511.81473696 989.8125 524.75 C989.6465332 525.54652985 989.48056641 526.34305969 989.30957031 527.16372681 C989.14553711 527.95121307 988.98150391 528.73869934 988.8125 529.55004883 C988.48832683 531.10629205 988.16410878 532.66252592 987.83984375 534.21875 C987.68289032 534.97214157 987.52593689 535.72553314 987.36422729 536.50175476 C986.39088541 541.16228441 985.39634578 545.81759788 984.37890625 550.46875 C984.12955322 551.60932861 983.8802002 552.74990723 983.62329102 553.92504883 C983.12996236 556.11710199 982.61654433 558.30474413 982.08178711 560.48706055 C980.75357995 565.97903487 979.85868657 571.15150536 979.5625 576.80078125 C978.27832 592.3267736 978.27832 592.3267736 972.39031982 597.38201904 C963.26278393 603.88623879 952.54749591 608.01732702 942.23095703 612.23144531 C937.22098338 614.29077742 932.48022735 616.74226915 927.75 619.375 C920.76085687 623.12977134 913.67223348 626.66734664 906.5625 630.1875 C898.51238264 634.17708445 890.66022596 638.29805464 883 643 C883.55123535 643.35078613 884.1024707 643.70157227 884.67041016 644.06298828 C897.62817383 652.30883789 897.62817383 652.30883789 910.5859375 660.5546875 C911.48248047 661.12517822 912.37902344 661.69566895 913.30273438 662.28344727 C915.10364963 663.42955834 916.9044305 664.57588061 918.70507812 665.72241211 C923.51115928 668.78219765 928.32001829 671.83750132 933.1328125 674.88671875 C934.13570312 675.52287109 935.13859375 676.15902344 936.171875 676.81445312 C938.09550939 678.03453605 940.01994897 679.2533507 941.9453125 680.47070312 C942.8115625 681.02048828 943.6778125 681.57027344 944.5703125 682.13671875 C945.33102051 682.61842529 946.09172852 683.10013184 946.87548828 683.59643555 C947.57657715 684.05961182 948.27766602 684.52278809 949 685 C949.75249023 685.45568359 950.50498047 685.91136719 951.28027344 686.38085938 C953 688 953 688 953.28173828 690.18286133 C952.24935833 698.12049966 950.65215308 705.88585243 948.875 713.6875 C948.56128193 715.08894816 948.2483091 716.49056333 947.93603516 717.89233398 C947.28704527 720.8028972 946.63488104 723.71272169 945.98046875 726.62207031 C944.56639503 732.92071274 943.19232855 739.22807269 941.81719971 745.53530884 C941.22875092 748.23295464 940.63846482 750.93019717 940.04824829 753.62745667 C938.52628928 760.58369827 937.01085234 767.54133878 935.5 774.5 C933.55005985 783.48100533 931.58945903 792.45966102 929.625 801.4375 C929.47674774 802.11511383 929.32849548 802.79272766 929.17575073 803.49087524 C927.54433412 810.94734586 925.91168986 818.40354593 924.27734375 825.859375 C923.8491548 827.81377352 923.42096602 829.76817209 922.9928894 831.72259521 C922.70513972 833.03629095 922.41731786 834.34997088 922.12942505 835.66363525 C920.42527448 843.44179802 918.73393256 851.2225496 917.0625 859.0078125 C916.39615549 862.10944432 915.72949991 865.21100905 915.0625 868.3125 C914.89648285 869.08459808 914.7304657 869.85669617 914.55941772 870.65219116 C911.93067595 882.86091795 909.17673841 895.03738132 906.36550903 907.20523071 C903.84690841 918.12058478 901.50856667 929.06129418 899.28198242 940.04052734 C897.39489687 949.27117953 895.31665175 958.44811092 893.1875 967.625 C890.0745302 981.04829169 887.1740144 994.5078437 884.375 1008 C881.74387547 1020.68105784 879.0813902 1033.34867699 876.23779297 1045.98413086 C874.2801794 1054.692484 872.39549219 1063.41541984 870.52041626 1072.14181519 C867.34527737 1086.91078206 864.1005217 1101.65761398 860.61425781 1116.35693359 C860.05570404 1118.76031321 859.53232867 1121.16774442 859.0234375 1123.58203125 C850.1940706 1164.19520891 813.57996318 1191.834345 780.76416016 1213.19970703 C779.10089993 1214.28298568 777.44070038 1215.37101565 775.78662109 1216.46826172 C757.12281363 1228.81799222 733.41839187 1237.13011566 710.90733433 1237.12304783 C710.22559632 1237.12420167 709.54385831 1237.12535552 708.84146157 1237.12654433 C706.56449456 1237.12918434 704.28759872 1237.12471049 702.01063538 1237.12025452 C700.35879848 1237.12069075 698.70696164 1237.12156663 697.05512518 1237.12284368 C692.52170381 1237.12507833 687.9883061 1237.12108142 683.45488775 1237.11606562 C678.56403122 1237.11174654 673.67317602 1237.11320858 668.78231812 1237.1139679 C660.31044766 1237.1144922 651.8385849 1237.1113551 643.36671638 1237.10573006 C631.11782107 1237.09760249 618.86892948 1237.09499854 606.62003177 1237.09374207 C586.74692987 1237.09155353 566.87383209 1237.0848988 547.00073242 1237.07543945 C527.69604513 1237.06626022 508.39135895 1237.05918188 489.08666992 1237.05493164 C487.89669775 1237.05466892 486.70672558 1237.05440619 485.48069365 1237.05413551 C479.51094366 1237.05283047 473.54119367 1237.05156676 467.57144368 1237.05032361 C418.04762628 1237.03995716 368.52381334 1237.02234421 319 1237 C318.84451691 1238.10364395 318.68903381 1239.2072879 318.52883911 1240.34437561 C318.11608747 1243.19754008 317.64312055 1245.98904348 317.0546875 1248.80859375 C316.86874023 1249.70247803 316.68279297 1250.5963623 316.49121094 1251.51733398 C316.28786133 1252.48098877 316.08451172 1253.44464355 315.875 1254.4375 C315.65618164 1255.48043213 315.43736328 1256.52336426 315.21191406 1257.59790039 C312.3898692 1270.98304313 309.44577502 1284.3418 306.50579834 1297.70141602 C304.85653312 1305.19644777 303.20937296 1312.69194231 301.5625 1320.1875 C301.27836746 1321.48024338 301.27836746 1321.48024338 300.98849487 1322.79910278 C298.23734266 1335.31888341 295.51416723 1347.84445367 292.8125 1360.375 C290.31882129 1371.94067155 287.79332973 1383.49830749 285.21582031 1395.0456543 C283.30989004 1403.58826011 281.43068829 1412.13657499 279.5625 1420.6875 C279.4162619 1421.35681549 279.2700238 1422.02613098 279.11935425 1422.71572876 C278.37633842 1426.11690503 277.63365358 1429.51815348 276.89111328 1432.91943359 C276.01042645 1436.95301539 275.12845411 1440.98631526 274.24609375 1445.01953125 C274.10169357 1445.67970245 273.9572934 1446.33987366 273.80851746 1447.02005005 C273.08582524 1450.32373544 272.36259784 1453.62730229 271.63842773 1456.93066406 C270.26093322 1463.21697644 268.88910039 1469.50439824 267.53363037 1475.79550171 C266.88846657 1478.78847099 266.24060895 1481.78085429 265.5925293 1484.77319336 C265.28241802 1486.20877377 264.9736474 1487.64464448 264.66625977 1489.08081055 C264.24176957 1491.06370312 263.81241746 1493.04555303 263.3828125 1495.02734375 C263.13934082 1496.15906006 262.89586914 1497.29077637 262.64501953 1498.45678711 C262 1501 262 1501 261 1502 C259.00358047 1502.09780687 257.00363464 1502.12371255 255.00482082 1502.12304783 C253.69307304 1502.12503888 252.38132525 1502.12702993 251.02982754 1502.12908131 C249.55499532 1502.12622771 248.08016329 1502.1232821 246.60533142 1502.12025452 C245.05354325 1502.12069008 243.50175515 1502.12156472 241.94996744 1502.12284368 C237.66522574 1502.12509153 233.38050879 1502.12106343 229.09577024 1502.11606562 C224.48292945 1502.11176543 219.87009016 1502.11320724 215.25724792 1502.1139679 C207.25836288 1502.11449341 199.25948596 1502.11134379 191.26060295 1502.10573006 C179.69542069 1502.0976187 168.13024238 1502.09500021 156.56505758 1502.09374207 C137.80337926 1502.09155097 119.04170527 1502.08488933 100.2800293 1502.07543945 C82.04988629 1502.06626682 63.81974446 1502.05918526 45.58959961 1502.05493164 C44.466752 1502.05466892 43.34390438 1502.05440619 42.18703108 1502.05413551 C36.55429093 1502.05283051 30.92155077 1502.0515668 25.28881061 1502.05032361 C-21.47412926 1502.0399492 -68.23706441 1502.02232933 -115 1502 C-114.84983027 1500.5782991 -114.69741155 1499.15683565 -114.54406738 1497.73547363 C-114.45943489 1496.94387093 -114.3748024 1496.15226822 -114.28760529 1495.33667755 C-113.87689987 1491.99986083 -113.18935115 1488.75148857 -112.46875 1485.46875 C-112.31720459 1484.7723793 -112.16565918 1484.07600861 -112.00952148 1483.35853577 C-111.51066206 1481.07138919 -111.00532645 1478.78572561 -110.5 1476.5 C-110.14216146 1474.86459307 -109.78474914 1473.22909282 -109.42773438 1471.59350586 C-108.2912909 1466.39431461 -107.14611819 1461.19706567 -106 1456 C-105.62364195 1454.29184176 -105.24733939 1452.58367129 -104.87109375 1450.87548828 C-104.68600754 1450.0351857 -104.50092133 1449.19488312 -104.31022644 1448.32911682 C-103.56114519 1444.92757589 -102.81238373 1441.52596468 -102.06387329 1438.1242981 C-101.68699586 1436.41206256 -101.3098583 1434.69988427 -100.9324646 1432.98776245 C-97.97314437 1419.55746582 -95.11728592 1406.10770683 -92.30810547 1392.64529419 C-90.09504106 1382.05143818 -87.76610781 1371.49557109 -85.28393555 1360.9609375 C-83.0793698 1351.52566178 -81.09894938 1342.04800934 -79.125 1332.5625 C-76.35142911 1319.23771305 -73.43634853 1305.95464244 -70.37081909 1292.69406128 C-67.80401334 1281.58909728 -65.34143518 1270.46874998 -62.98974609 1259.31591797 C-61.41454589 1251.85596394 -59.73775239 1244.42377489 -58 1237 C-58.99 1237 -59.98 1237 -61 1237 C-59.68325559 1228.69724667 -58.12102231 1220.47254693 -56.375 1212.25 C-56.14554688 1211.15945313 -55.91609375 1210.06890625 -55.6796875 1208.9453125 C-55.12202086 1206.29639595 -54.56210119 1203.6479784 -54 1201 C-54.86987549 1201.89605957 -55.73975098 1202.79211914 -56.63598633 1203.71533203 C-87.07785159 1234.99227806 -87.07785159 1234.99227806 -102.73974609 1245.4453125 C-107.12016119 1248.45832647 -111.29192558 1251.75301719 -115.5 1255 C-122.28218738 1260.19648935 -129.10948153 1265.3230607 -136 1270.375 C-142.77795546 1275.34586796 -149.47302822 1280.40159454 -156.11914062 1285.54785156 C-167.59054929 1294.40454143 -179.14293139 1303.14610871 -190.83447266 1311.70996094 C-196.77584223 1316.07197911 -202.64706719 1320.52018926 -208.5 1325 C-215.1194735 1330.06651784 -221.77511787 1335.07422941 -228.5 1340 C-236.09977847 1345.5683038 -243.60989458 1351.24580174 -251.09375 1356.96875 C-257.85757951 1362.13874634 -264.66009244 1367.25468981 -271.47802734 1372.35302734 C-277.53394426 1376.88693883 -283.55314659 1381.4671121 -289.5625 1386.0625 C-296.92257692 1391.68824362 -304.3416157 1397.22363645 -311.81640625 1402.69580078 C-318.82393384 1407.83865809 -325.73487374 1413.10423672 -332.62109375 1418.40820312 C-349.03054744 1431 -349.03054744 1431 -352 1431 C-352.11782333 1430.30336746 -352.23564667 1429.60673492 -352.35704041 1428.88899231 C-359.56033091 1386.30061766 -366.77157053 1343.7136125 -374.01953125 1301.1328125 C-374.18383133 1300.16754639 -374.34813141 1299.20228027 -374.51741028 1298.20776367 C-375.33674943 1293.39461558 -376.1564754 1288.58153379 -376.97680664 1283.76855469 C-378.7556856 1273.32883587 -380.52675755 1262.88784257 -382.2890625 1252.4453125 C-386.37231276 1228.26760939 -390.50599615 1204.10518042 -395 1180 C-395.1451001 1180.71091797 -395.2902002 1181.42183594 -395.43969727 1182.15429688 C-398.60241788 1197.61922446 -401.85593198 1213.05911639 -405.25 1228.47509766 C-405.54820791 1229.82974582 -405.84638467 1231.18440084 -406.14453125 1232.5390625 C-406.29411285 1233.21860992 -406.44369446 1233.89815735 -406.59780884 1234.59829712 C-407.74993502 1239.84115633 -408.88405125 1245.0877677 -410.01171875 1250.3359375 C-413.18882092 1265.11617984 -416.39987526 1279.88000221 -419.85180664 1294.59912109 C-421.98582372 1303.77184145 -423.87724275 1312.98867755 -425.75708008 1322.21630859 C-427.32817538 1329.88219645 -429.01438761 1337.50942904 -430.8125 1345.125 C-433.57580742 1356.85512857 -436.04933026 1368.63882456 -438.5 1380.4375 C-442.37104861 1399.06423277 -446.40750515 1417.64313808 -450.640625 1436.19140625 C-454.39347157 1452.66708425 -457.97404274 1469.17022122 -461.42333984 1485.7121582 C-461.58801758 1486.50123566 -461.75269531 1487.29031311 -461.92236328 1488.103302 C-462.23098831 1489.58357447 -462.53881773 1491.06401312 -462.84570312 1492.54464722 C-463.50606576 1495.71598083 -464.21409092 1498.85636369 -465 1502 C-590.07 1502 -715.14 1502 -844 1502 C-842.64487535 1493.86925212 -841.19030436 1485.85410656 -839.4375 1477.8125 C-839.05440674 1476.03927368 -839.05440674 1476.03927368 -838.66357422 1474.23022461 C-835.95731654 1461.73424267 -833.20593067 1449.24802003 -830.45874023 1436.76098633 C-827.78194474 1424.58984347 -825.13613755 1412.41231785 -822.51080322 1400.22998047 C-820.6188365 1391.45272309 -818.71423303 1382.67848165 -816.78125 1373.91015625 C-816.59404892 1373.06086548 -816.40684784 1372.21157471 -816.213974 1371.33654785 C-815.83349554 1369.61069307 -815.45299722 1367.88484266 -815.07247925 1366.15899658 C-814.8835611 1365.30215271 -814.69464294 1364.44530884 -814.5 1363.5625 C-814.21698532 1362.27916779 -814.21698532 1362.27916779 -813.92825317 1360.96990967 C-811.01512801 1347.74905486 -808.20516029 1334.50906843 -805.44387817 1321.25576782 C-802.92028744 1309.16201793 -800.22616865 1297.11555422 -797.43435669 1285.08114624 C-794.75507918 1273.51603123 -792.29449174 1261.91774297 -789.9387207 1250.28274536 C-787.85470122 1239.99884972 -785.60560634 1229.76620241 -783.19873047 1219.55249023 C-781.32780229 1211.56152322 -779.63727073 1203.54185732 -778 1195.5 C-776.14818613 1186.40436133 -774.1917528 1177.34720913 -772.0625 1168.3125 C-769.66606372 1158.13930776 -767.51549909 1147.92918711 -765.4375 1137.6875 C-763.60396839 1128.65634479 -761.75991023 1119.63887922 -759.5625 1110.6875 C-757.27296613 1101.34780715 -755.21453678 1091.96188389 -753.1875 1082.5625 C-752.93315689 1081.38358185 -752.93315689 1081.38358185 -752.67367554 1080.18084717 C-750.72839352 1071.15219252 -748.80944348 1062.11820328 -746.91796875 1053.078125 C-746.74815994 1052.2666098 -746.57835114 1051.4550946 -746.40339661 1050.61898804 C-745.38545774 1045.75318594 -745.38545774 1045.75318594 -744.36807251 1040.88726807 C-742.09151162 1030.00872577 -739.6947108 1019.16791012 -737.14794922 1008.34887695 C-735.2951691 1000.42575435 -733.62430387 992.47285246 -732 984.5 C-730.15932147 975.4698407 -728.22915081 966.47248328 -726.125 957.5 C-723.70376062 947.16804902 -721.41797829 936.81189326 -719.1875 926.4375 C-718.50401812 923.2590905 -717.82051015 920.08068668 -717.13671875 916.90234375 C-716.96319885 916.0957431 -716.78967896 915.28914246 -716.61090088 914.45809937 C-714.60199916 905.13257218 -712.55062998 895.81642203 -710.5 886.5 C-707.47504299 872.75170678 -704.4775994 858.9978471 -701.51226807 845.23657227 C-699.59733409 836.35143181 -697.66815046 827.46968292 -695.7109375 818.59375 C-695.51818741 817.71948868 -695.32543732 816.84522736 -695.12684631 815.94447327 C-694.73713591 814.17710052 -694.34741118 812.40973093 -693.95767212 810.6423645 C-693.76539032 809.77038422 -693.57310852 808.89840393 -693.375 808 C-693.18376556 807.13293427 -692.99253113 806.26586853 -692.79550171 805.37252808 C-690.38889124 794.45098665 -688.0476897 783.52059959 -685.8125 772.5625 C-683.81687955 762.78206435 -681.66038651 753.05293663 -679.38330078 743.33447266 C-676.85511558 732.49453445 -674.51528994 721.616397 -672.17675781 710.734375 C-671.83274759 709.13410055 -671.48867138 707.53384027 -671.14453125 705.93359375 C-670.88487076 704.7261702 -670.88487076 704.7261702 -670.6199646 703.49435425 C-669.32949694 697.50429955 -668.01909434 691.51879514 -666.69921875 685.53515625 C-666.50720886 684.66459595 -666.31519897 683.79403564 -666.11737061 682.89709473 C-665.7298342 681.14047446 -665.34226101 679.3838623 -664.95465088 677.6272583 C-661.9004999 663.78436803 -658.92586615 649.93230374 -656.0949707 636.04174805 C-654.31757155 627.3802386 -652.34869372 618.77352421 -650.32177734 610.16748047 C-648.19307607 601.03993029 -646.30097641 591.87188435 -644.4375 582.6875 C-642.44265499 572.86178722 -640.37742446 563.07207446 -637.98413086 553.33422852 C-634.86133866 540.50420085 -632.1985976 527.56506799 -629.43443298 514.6541748 C-628.43656556 510.00266913 -627.41657949 505.35680763 -626.375 500.71484375 C-626.13910156 499.65765137 -625.90320313 498.60045898 -625.66015625 497.51123047 C-625.23553785 495.61458068 -624.80623061 493.7189713 -624.37109375 491.82470703 C-622.32453949 484.23645087 -622.32453949 484.23645087 -624.18847656 476.95727539 C-625.92094771 474.48356239 -627.74865125 472.11641766 -629.625 469.75 C-630.30216064 468.8724707 -630.97932129 467.99494141 -631.67700195 467.09082031 C-633.77113448 464.38302882 -635.88414302 461.69083429 -638 459 C-639.23165018 457.41758551 -640.46217683 455.83429569 -641.69140625 454.25 C-643.43668729 452.00205867 -645.18335262 449.75530686 -646.93579102 447.51293945 C-651.20747395 442.04525771 -655.39084746 436.51720555 -659.54077148 430.95678711 C-664.15433606 424.77870848 -668.83771212 418.65558151 -673.52734375 412.53515625 C-677.29818069 407.61371119 -681.05597501 402.68237376 -684.8125 397.75 C-685.4837793 396.86868408 -686.15505859 395.98736816 -686.84667969 395.0793457 C-688.21504997 393.28274795 -689.5833766 391.48611694 -690.95166016 389.68945312 C-693.63625414 386.16460362 -696.32148683 382.64024104 -699.00683594 379.1159668 C-700.33703178 377.37012549 -701.66710966 375.6241943 -702.99707031 373.87817383 C-706.34078671 369.48862722 -709.68624043 365.10042517 -713.03515625 360.71484375 C-719.60379116 352.10912069 -726.1453189 343.4854463 -732.625 334.8125 C-737.98090943 327.64534233 -743.42826433 320.55733802 -748.93969727 313.50927734 C-753.20162154 308.05077997 -757.38094748 302.53613 -761.51879883 296.9831543 C-764.12989756 293.48235431 -766.76081898 289.99910051 -769.42578125 286.5390625 C-770.00126709 285.79148682 -770.57675293 285.04391113 -771.16967773 284.27368164 C-772.26435852 282.85427951 -773.36133083 281.43664005 -774.46118164 280.02124023 C-778.23184854 275.12977552 -781.55272191 270.17091713 -785 265 C-596.57 265 -408.14 265 -214 265 C-211.50319266 275.61143119 -209.12383417 286.11649129 -207.125 296.8125 C-205.21318301 306.90525927 -203.18994644 316.963104 -201 327 C-198.71977088 337.46157237 -196.62884714 347.95067343 -194.625 358.46826172 C-192.86860704 367.67331596 -190.99542687 376.84390065 -189 386 C-186.72005205 396.46163616 -184.62884843 406.95066665 -182.625 417.46826172 C-180.86860704 426.67331596 -178.99542687 435.84390065 -177 445 C-174.72005205 455.46163616 -172.62884843 465.95066665 -170.625 476.46826172 C-168.86860704 485.67331596 -166.99542687 494.84390065 -165 504 C-162.72005205 514.46163616 -160.62884843 524.95066665 -158.625 535.46826172 C-156.86860704 544.67331596 -154.99542687 553.84390065 -153 563 C-150.72005205 573.46163616 -148.62884843 583.95066665 -146.625 594.46826172 C-144.65090187 604.81428382 -142.50515672 615.1123633 -140.2565918 625.40185547 C-138.89385543 631.68446764 -137.59875481 637.97446469 -136.39453125 644.2890625 C-136.26150604 644.98578064 -136.12848083 645.68249878 -135.99142456 646.40032959 C-135.34947618 649.77316901 -134.71595361 653.14724008 -134.09179688 656.5234375 C-132.77825673 663.49954985 -131.23389329 670.25820202 -129 677 C-128.68998047 676.54488037 -128.37996094 676.08976074 -128.06054688 675.62084961 C-119.46362846 663.00859466 -110.77660578 650.461086 -102.04833984 637.93945312 C-98.69581651 633.12844228 -95.34811999 628.31407577 -92 623.5 C-90.66669052 621.58331674 -89.33335717 619.66665009 -88 617.75 C-87.34 616.80125 -86.68 615.8525 -86 614.875 C-80 606.24999999 -80 606.24999999 -77.9987793 603.37329102 C-76.66945771 601.4623608 -75.34019311 599.55139093 -74.01098633 597.64038086 C-70.61674652 592.76061498 -67.2214281 587.88160534 -63.82421875 583.00390625 C-57.98695753 574.62098483 -52.15036894 566.23822419 -46.375 557.8125 C-41.80901807 551.15228169 -37.18448942 544.53415056 -32.54907227 537.92211914 C-22.99951676 524.29822485 -13.48672131 510.64866328 -4.08129883 496.92480469 C0.17304015 490.7271453 4.49199291 484.57517933 8.80908203 478.42114258 C12.39949019 473.29879419 15.96498717 468.16071263 19.5 463 C23.52798115 457.12138487 27.59667981 451.27255686 31.6875 445.4375 C41.82603629 430.97594014 51.93437459 416.49336727 61.91870117 401.92480469 C66.17304015 395.7271453 70.49199291 389.57517933 74.80908203 383.42114258 C78.39949019 378.29879419 81.96498717 373.16071263 85.5 368 C89.52798115 362.12138487 93.59667981 356.27255686 97.6875 350.4375 C107.82026852 335.98416725 117.92785063 321.51296702 127.90112305 306.94897461 C132.32036974 300.50726188 136.81414157 294.11776654 141.31884766 287.7355957 C142.16648682 286.53036255 142.16648682 286.53036255 143.03125 285.30078125 C143.53205078 284.59091064 144.03285156 283.88104004 144.54882812 283.1496582 C147.42313378 278.89187534 149.36668515 275.41100627 150.39453125 270.3359375 C150.6251123 269.22637695 150.85569336 268.11681641 151.09326172 266.97363281 C151.33061035 265.78608398 151.56795898 264.59853516 151.8125 263.375 C152.33066713 260.85648979 152.85023707 258.33826786 153.37109375 255.8203125 C153.63647949 254.5302832 153.90186523 253.24025391 154.17529297 251.91113281 C154.98444507 248.0737685 155.8422446 244.25128195 156.72265625 240.4296875 C156.99940186 239.22393066 157.27614746 238.01817383 157.5612793 236.77587891 C158.09176782 234.47725446 158.62810938 232.17997057 159.17114258 229.88427734 C161.8236259 220.29031934 161.8236259 220.29031934 159.87060547 210.95800781 C158.26113758 208.70631283 156.54433032 206.60718673 154.75 204.5 C153.44917302 202.90344096 152.14971645 201.30576447 150.8515625 199.70703125 C150.19833008 198.91377441 149.54509766 198.12051758 148.87207031 197.30322266 C146.19008864 194.00355975 143.65292734 190.60570881 141.125 187.1875 C134.50569909 178.30868336 127.78354177 169.50896313 121.06445312 160.70556641 C117.04076949 155.43233296 113.02234788 150.15508882 109.00317383 144.87841797 C105.65932679 140.48882758 102.31382877 136.10051578 98.96484375 131.71484375 C92.39620888 123.10912074 85.85467486 114.48545096 79.375 105.8125 C73.94690013 98.54864542 68.42606342 91.36431979 62.84277344 84.21923828 C59.00621893 79.30631104 55.23645733 74.3500102 51.51171875 69.3515625 C48.18491797 64.89818916 44.80814806 60.4827128 41.4375 56.0625 C40.40713623 54.71128052 40.40713623 54.71128052 39.35595703 53.33276367 C37.94168166 51.4784297 36.52729242 49.62418258 35.11279297 47.77001953 C33.06527199 45.08557616 31.01872081 42.40039731 28.97265625 39.71484375 C28.31539551 38.85221924 27.65813477 37.98959473 26.98095703 37.10083008 C25.66505552 35.373162 24.34962233 33.64513712 23.03466797 31.91674805 C19.52646052 27.30718711 16.0072058 22.7065898 12.47265625 18.1171875 C11.73466797 17.15619141 10.99667969 16.19519531 10.23632812 15.20507812 C8.81515796 13.35487546 7.39080719 11.50711041 5.96289062 9.66210938 C5.32673828 8.83259766 4.69058594 8.00308594 4.03515625 7.1484375 C3.4719165 6.41802246 2.90867676 5.68760742 2.32836914 4.93505859 C1 3 1 3 0 0 Z " fill="#000000" transform="translate(876,147)"/>
<path d="M0 0 C1.85304431 2.77956646 2.48887098 4.36080777 3.26171875 7.515625 C3.48980225 8.42489746 3.71788574 9.33416992 3.95288086 10.27099609 C4.19530518 11.25406738 4.43772949 12.23713867 4.6875 13.25 C6.74186077 21.35915118 8.95732554 29.38579618 11.4375 37.375 C16.86499212 54.91147096 21.64430232 72.61986751 26.35961914 90.35888672 C28.66032072 98.93038312 31.19462303 107.41869472 33.8671875 115.88134766 C34.28677734 117.22205322 34.28677734 117.22205322 34.71484375 118.58984375 C34.96355225 119.37222412 35.21226074 120.15460449 35.46850586 120.96069336 C36 123 36 123 36 126 C36.97274872 125.51140503 37.94549744 125.02281006 38.94772339 124.51940918 C48.09845747 119.92380339 57.25128103 115.33238379 66.40618706 110.7450943 C71.11316554 108.38637811 75.81938557 106.02617381 80.52392578 103.66259766 C85.06089218 101.38327896 89.59978035 99.10783157 94.14004898 96.83509827 C95.87515956 95.96568993 97.60956339 95.09486969 99.3432579 94.22264099 C101.76460151 93.00475 104.18836989 91.79182449 106.61279297 90.58007812 C107.33496002 90.21539932 108.05712708 89.85072052 108.80117798 89.47499084 C113.77189568 87 113.77189568 87 116 87 C115.49242188 94.93801227 114.1848528 102.45042287 112.375 110.1875 C111.82869213 112.58186368 111.2831515 114.97640251 110.73828125 117.37109375 C110.31023193 119.24063721 110.31023193 119.24063721 109.87353516 121.14794922 C108.54508519 127.00604969 107.2720298 132.8759809 105.9977417 138.74603271 C104.06684398 147.63639379 102.1175035 156.52214477 100.10546875 165.39453125 C99.94933609 166.08322296 99.79320343 166.77191467 99.63233948 167.48147583 C98.89044164 170.75046545 98.14546185 174.01869909 97.39672852 177.28613281 C95.67433483 184.84555587 94.09947708 192.41741517 92.63964844 200.03100586 C92 203 92 203 91 205 C46.45 205 1.9 205 -44 205 C-44 197.13102894 -44 197.13102894 -42.96875 192.89453125 C-42.73929688 191.9298291 -42.50984375 190.96512695 -42.2734375 189.97119141 C-42.01820312 188.92882324 -41.76296875 187.88645508 -41.5 186.8125 C-40.94637354 184.48343918 -40.39438282 182.15398913 -39.84375 179.82421875 C-39.54597656 178.56915527 -39.24820312 177.3140918 -38.94140625 176.02099609 C-37.22659569 168.73776471 -35.61864951 161.43006998 -34 154.125 C-33.74293777 152.96677734 -33.74293777 152.96677734 -33.48068237 151.78515625 C-31.05682474 140.86008634 -28.68360735 129.92506844 -26.3527832 118.97973633 C-24.17038676 108.74862124 -21.9334499 98.52982587 -19.6875 88.3125 C-19.4979776 87.45026825 -19.3084552 86.5880365 -19.1131897 85.69967651 C-18.13954916 81.27087669 -17.16536997 76.84219556 -16.19091797 72.41357422 C-14.40131915 64.27975287 -12.6147932 56.14525685 -10.82876587 48.01065063 C-10.25674894 45.40573409 -9.68441636 42.80088703 -9.11206055 40.19604492 C-7.51832459 32.94002309 -5.92804489 25.68336194 -4.359375 18.421875 C-4.12444336 17.33471191 -3.88951172 16.24754883 -3.64746094 15.12744141 C-3.23246052 13.20297868 -2.818916 11.27820108 -2.40722656 9.35302734 C-1.72293561 6.17703841 -1.02830033 3.08490099 0 0 Z " fill="#FDFDFD" transform="translate(1308,869)"/>
<path d="M0 0 C44.55 0 89.1 0 135 0 C133.87486095 9.00111239 133.87486095 9.00111239 133.13964844 12.33862305 C132.97543396 13.09177795 132.81121948 13.84493286 132.64202881 14.62091064 C132.46625305 15.40987732 132.29047729 16.19884399 132.109375 17.01171875 C131.83290131 18.27577545 131.83290131 18.27577545 131.55084229 19.56536865 C130.54751599 24.13846195 129.52103533 28.70608705 128.484375 33.27172852 C128.06734419 35.11336159 127.65067372 36.9550763 127.234375 38.796875 C127.03098511 39.69486313 126.82759521 40.59285126 126.61804199 41.51805115 C125.54221193 46.33533508 124.60742247 51.12891032 123.890625 56.015625 C121.90399038 68.86883218 121.90399038 68.86883218 116.83203125 72.93359375 C113.30288342 75.25989821 109.54366389 76.98540396 105.69628906 78.71679688 C100.51094001 81.1845798 95.63143762 84.21173417 90.6875 87.125 C88.44306068 88.42213771 86.19693227 89.7163567 83.94921875 91.0078125 C82.80759277 91.66426758 81.6659668 92.32072266 80.48974609 92.99707031 C74.07813798 96.67912614 67.65596611 100.34272471 61.23452759 104.00759888 C48.46515871 111.29596682 35.73005758 118.64321992 23 126 C14.33701011 131.00639617 5.6711153 136.00768861 -3 141 C-3.61965637 141.3569696 -4.23931274 141.71393921 -4.87774658 142.08172607 C-8.76721854 144.32217259 -12.65847033 146.55947704 -16.55206299 148.79275513 C-17.80044393 149.50932845 -19.04829551 150.22682487 -20.29559326 150.94528198 C-22.02761391 151.94265753 -23.76180601 152.93625933 -25.49609375 153.9296875 C-26.98387329 154.78409424 -26.98387329 154.78409424 -28.50170898 155.65576172 C-31 157 -31 157 -34 158 C-33.33257072 150.7240808 -31.63396782 143.71173725 -29.96362305 136.61376953 C-26.79086848 123.11299953 -23.81802707 109.57890808 -21 96 C-18.4820769 83.88397699 -15.84558734 71.80820813 -13.0625 59.75 C-8.51405655 39.87680094 -4.27168294 19.93452039 0 0 Z " fill="#FEFEFE" transform="translate(1398,456)"/>
</svg>
